<mxfile host="app.diagrams.net" modified="2020-10-29T05:39:25.018Z" agent="5.0 (Windows NT 10.0; Win64; x64) AppleWebKit/537.36 (KHTML, like Gecko) Chrome/86.0.4240.111 Safari/537.36" etag="Dwk2bpZcKOFNOfmOVy0U" version="13.8.3" type="github">
  <diagram id="QSnDFyake2PTy4IfMd56" name="Page-1">
    <mxGraphModel dx="782" dy="437" grid="1" gridSize="10" guides="1" tooltips="1" connect="1" arrows="1" fold="1" page="1" pageScale="1" pageWidth="1169" pageHeight="1654" math="0" shadow="0">
      <root>
        <mxCell id="0" />
        <mxCell id="1" parent="0" />
        <mxCell id="RUTWPTI_gtGOaxQETF4y-32" value="" style="edgeStyle=orthogonalEdgeStyle;rounded=0;orthogonalLoop=1;jettySize=auto;html=1;" edge="1" parent="1" source="RUTWPTI_gtGOaxQETF4y-24" target="RUTWPTI_gtGOaxQETF4y-31">
          <mxGeometry relative="1" as="geometry" />
        </mxCell>
        <mxCell id="RUTWPTI_gtGOaxQETF4y-46" value="" style="edgeStyle=orthogonalEdgeStyle;rounded=0;orthogonalLoop=1;jettySize=auto;html=1;endArrow=none;endFill=0;dashed=1;" edge="1" parent="1" source="RUTWPTI_gtGOaxQETF4y-24" target="RUTWPTI_gtGOaxQETF4y-45">
          <mxGeometry relative="1" as="geometry" />
        </mxCell>
        <mxCell id="RUTWPTI_gtGOaxQETF4y-24" value="Home" style="rounded=0;whiteSpace=wrap;html=1;" vertex="1" parent="1">
          <mxGeometry x="320" y="60" width="120" height="60" as="geometry" />
        </mxCell>
        <mxCell id="RUTWPTI_gtGOaxQETF4y-37" value="" style="edgeStyle=orthogonalEdgeStyle;rounded=0;orthogonalLoop=1;jettySize=auto;html=1;" edge="1" parent="1" source="RUTWPTI_gtGOaxQETF4y-31" target="RUTWPTI_gtGOaxQETF4y-36">
          <mxGeometry relative="1" as="geometry" />
        </mxCell>
        <mxCell id="RUTWPTI_gtGOaxQETF4y-31" value="Nav-bar main level pages" style="rounded=0;whiteSpace=wrap;html=1;" vertex="1" parent="1">
          <mxGeometry x="320" y="200" width="120" height="60" as="geometry" />
        </mxCell>
        <mxCell id="RUTWPTI_gtGOaxQETF4y-35" value="*" style="text;html=1;strokeColor=none;fillColor=none;align=center;verticalAlign=middle;whiteSpace=wrap;rounded=0;" vertex="1" parent="1">
          <mxGeometry x="414" y="190" width="40" height="20" as="geometry" />
        </mxCell>
        <mxCell id="RUTWPTI_gtGOaxQETF4y-41" value="" style="edgeStyle=orthogonalEdgeStyle;rounded=0;orthogonalLoop=1;jettySize=auto;html=1;" edge="1" parent="1" source="RUTWPTI_gtGOaxQETF4y-36" target="RUTWPTI_gtGOaxQETF4y-40">
          <mxGeometry relative="1" as="geometry" />
        </mxCell>
        <mxCell id="RUTWPTI_gtGOaxQETF4y-36" value="Nav-bar collapsed level/Sidebar main level pages" style="rounded=0;whiteSpace=wrap;html=1;" vertex="1" parent="1">
          <mxGeometry x="320" y="340" width="120" height="60" as="geometry" />
        </mxCell>
        <mxCell id="RUTWPTI_gtGOaxQETF4y-38" value="1" style="text;html=1;strokeColor=none;fillColor=none;align=center;verticalAlign=middle;whiteSpace=wrap;rounded=0;" vertex="1" parent="1">
          <mxGeometry x="610" y="40" width="40" height="20" as="geometry" />
        </mxCell>
        <mxCell id="RUTWPTI_gtGOaxQETF4y-39" value="*" style="text;html=1;strokeColor=none;fillColor=none;align=center;verticalAlign=middle;whiteSpace=wrap;rounded=0;" vertex="1" parent="1">
          <mxGeometry x="414" y="330" width="40" height="20" as="geometry" />
        </mxCell>
        <mxCell id="RUTWPTI_gtGOaxQETF4y-40" value="Sidebar collapsed level pages" style="rounded=0;whiteSpace=wrap;html=1;" vertex="1" parent="1">
          <mxGeometry x="320" y="480" width="120" height="60" as="geometry" />
        </mxCell>
        <mxCell id="RUTWPTI_gtGOaxQETF4y-42" value="*" style="text;html=1;strokeColor=none;fillColor=none;align=center;verticalAlign=middle;whiteSpace=wrap;rounded=0;" vertex="1" parent="1">
          <mxGeometry x="414" y="470" width="40" height="20" as="geometry" />
        </mxCell>
        <mxCell id="RUTWPTI_gtGOaxQETF4y-43" value="Front-end/User Perspective: Pages are organized in a hierarchy of depth 4." style="text;html=1;strokeColor=none;fillColor=none;align=center;verticalAlign=middle;whiteSpace=wrap;rounded=0;" vertex="1" parent="1">
          <mxGeometry x="40" y="80" width="260" height="20" as="geometry" />
        </mxCell>
        <mxCell id="RUTWPTI_gtGOaxQETF4y-44" value="Administrator Perspective:&lt;br&gt;A login/authentication page and a single-page web application for managing website content." style="text;html=1;strokeColor=none;fillColor=none;align=center;verticalAlign=middle;whiteSpace=wrap;rounded=0;" vertex="1" parent="1">
          <mxGeometry x="880" y="55" width="220" height="70" as="geometry" />
        </mxCell>
        <mxCell id="RUTWPTI_gtGOaxQETF4y-48" value="" style="edgeStyle=orthogonalEdgeStyle;rounded=0;orthogonalLoop=1;jettySize=auto;html=1;dashed=1;" edge="1" parent="1" source="RUTWPTI_gtGOaxQETF4y-45" target="RUTWPTI_gtGOaxQETF4y-47">
          <mxGeometry relative="1" as="geometry" />
        </mxCell>
        <mxCell id="RUTWPTI_gtGOaxQETF4y-45" value="Admin Log In" style="rounded=0;whiteSpace=wrap;html=1;" vertex="1" parent="1">
          <mxGeometry x="520" y="60" width="120" height="60" as="geometry" />
        </mxCell>
        <mxCell id="RUTWPTI_gtGOaxQETF4y-47" value="CMS Management" style="rounded=0;whiteSpace=wrap;html=1;" vertex="1" parent="1">
          <mxGeometry x="720" y="60" width="120" height="60" as="geometry" />
        </mxCell>
        <mxCell id="RUTWPTI_gtGOaxQETF4y-49" value="1" style="text;html=1;strokeColor=none;fillColor=none;align=center;verticalAlign=middle;whiteSpace=wrap;rounded=0;" vertex="1" parent="1">
          <mxGeometry x="410" y="40" width="40" height="20" as="geometry" />
        </mxCell>
        <mxCell id="RUTWPTI_gtGOaxQETF4y-50" value="1" style="text;html=1;strokeColor=none;fillColor=none;align=center;verticalAlign=middle;whiteSpace=wrap;rounded=0;" vertex="1" parent="1">
          <mxGeometry x="810" y="40" width="40" height="20" as="geometry" />
        </mxCell>
        <mxCell id="RUTWPTI_gtGOaxQETF4y-51" value="Page Structure Perspective:" style="text;html=1;strokeColor=none;fillColor=none;align=center;verticalAlign=middle;whiteSpace=wrap;rounded=0;" vertex="1" parent="1">
          <mxGeometry y="580" width="210" height="20" as="geometry" />
        </mxCell>
        <mxCell id="RUTWPTI_gtGOaxQETF4y-53" value="Desktop:" style="text;html=1;strokeColor=none;fillColor=none;align=center;verticalAlign=middle;whiteSpace=wrap;rounded=0;" vertex="1" parent="1">
          <mxGeometry x="50" y="610" width="70" height="20" as="geometry" />
        </mxCell>
        <mxCell id="RUTWPTI_gtGOaxQETF4y-55" value="Model 1: Has sidebar" style="text;html=1;strokeColor=none;fillColor=none;align=center;verticalAlign=middle;whiteSpace=wrap;rounded=0;" vertex="1" parent="1">
          <mxGeometry x="10" y="650" width="160" height="20" as="geometry" />
        </mxCell>
        <mxCell id="RUTWPTI_gtGOaxQETF4y-63" value="Model 2: No sidebar&amp;nbsp;" style="text;html=1;strokeColor=none;fillColor=none;align=center;verticalAlign=middle;whiteSpace=wrap;rounded=0;" vertex="1" parent="1">
          <mxGeometry x="730" y="647" width="160" height="20" as="geometry" />
        </mxCell>
        <mxCell id="RUTWPTI_gtGOaxQETF4y-64" value="" style="group" vertex="1" connectable="0" parent="1">
          <mxGeometry x="190" y="650" width="480" height="360" as="geometry" />
        </mxCell>
        <mxCell id="RUTWPTI_gtGOaxQETF4y-52" value="" style="rounded=0;whiteSpace=wrap;html=1;" vertex="1" parent="RUTWPTI_gtGOaxQETF4y-64">
          <mxGeometry width="480" height="360" as="geometry" />
        </mxCell>
        <mxCell id="RUTWPTI_gtGOaxQETF4y-57" value="Header" style="rounded=0;whiteSpace=wrap;html=1;fillColor=#d5e8d4;strokeColor=#82b366;" vertex="1" parent="RUTWPTI_gtGOaxQETF4y-64">
          <mxGeometry width="480" height="80" as="geometry" />
        </mxCell>
        <mxCell id="RUTWPTI_gtGOaxQETF4y-58" value="" style="rounded=0;whiteSpace=wrap;html=1;" vertex="1" parent="RUTWPTI_gtGOaxQETF4y-64">
          <mxGeometry y="80" width="480" height="190" as="geometry" />
        </mxCell>
        <mxCell id="RUTWPTI_gtGOaxQETF4y-59" value="Sidebar" style="rounded=0;whiteSpace=wrap;html=1;fillColor=#fff2cc;strokeColor=#d6b656;" vertex="1" parent="RUTWPTI_gtGOaxQETF4y-64">
          <mxGeometry y="80" width="120" height="200" as="geometry" />
        </mxCell>
        <mxCell id="RUTWPTI_gtGOaxQETF4y-60" value="Content" style="rounded=0;whiteSpace=wrap;html=1;fillColor=#f8cecc;strokeColor=#b85450;" vertex="1" parent="RUTWPTI_gtGOaxQETF4y-64">
          <mxGeometry x="120" y="80" width="360" height="200" as="geometry" />
        </mxCell>
        <mxCell id="RUTWPTI_gtGOaxQETF4y-62" value="Footer" style="rounded=0;whiteSpace=wrap;html=1;fillColor=#e1d5e7;strokeColor=#9673a6;" vertex="1" parent="RUTWPTI_gtGOaxQETF4y-64">
          <mxGeometry y="280" width="480" height="80" as="geometry" />
        </mxCell>
        <mxCell id="RUTWPTI_gtGOaxQETF4y-65" value="" style="group" vertex="1" connectable="0" parent="1">
          <mxGeometry x="900" y="647" width="480" height="360" as="geometry" />
        </mxCell>
        <mxCell id="RUTWPTI_gtGOaxQETF4y-66" value="" style="rounded=0;whiteSpace=wrap;html=1;" vertex="1" parent="RUTWPTI_gtGOaxQETF4y-65">
          <mxGeometry width="480" height="360" as="geometry" />
        </mxCell>
        <mxCell id="RUTWPTI_gtGOaxQETF4y-67" value="Header" style="rounded=0;whiteSpace=wrap;html=1;fillColor=#d5e8d4;strokeColor=#82b366;" vertex="1" parent="RUTWPTI_gtGOaxQETF4y-65">
          <mxGeometry width="480" height="80" as="geometry" />
        </mxCell>
        <mxCell id="RUTWPTI_gtGOaxQETF4y-68" value="" style="rounded=0;whiteSpace=wrap;html=1;" vertex="1" parent="RUTWPTI_gtGOaxQETF4y-65">
          <mxGeometry y="80" width="480" height="190" as="geometry" />
        </mxCell>
        <mxCell id="RUTWPTI_gtGOaxQETF4y-70" value="Content" style="rounded=0;whiteSpace=wrap;html=1;fillColor=#f8cecc;strokeColor=#b85450;" vertex="1" parent="RUTWPTI_gtGOaxQETF4y-65">
          <mxGeometry y="80" width="480" height="200" as="geometry" />
        </mxCell>
        <mxCell id="RUTWPTI_gtGOaxQETF4y-71" value="Footer" style="rounded=0;whiteSpace=wrap;html=1;fillColor=#e1d5e7;strokeColor=#9673a6;" vertex="1" parent="RUTWPTI_gtGOaxQETF4y-65">
          <mxGeometry y="280" width="480" height="80" as="geometry" />
        </mxCell>
        <mxCell id="RUTWPTI_gtGOaxQETF4y-72" value="Mobile Portrait:" style="text;html=1;strokeColor=none;fillColor=none;align=center;verticalAlign=middle;whiteSpace=wrap;rounded=0;" vertex="1" parent="1">
          <mxGeometry x="25" y="1050" width="120" height="20" as="geometry" />
        </mxCell>
        <mxCell id="RUTWPTI_gtGOaxQETF4y-74" value="Model 1: Has sidebar" style="text;html=1;strokeColor=none;fillColor=none;align=center;verticalAlign=middle;whiteSpace=wrap;rounded=0;" vertex="1" parent="1">
          <mxGeometry x="10" y="1090" width="180" height="20" as="geometry" />
        </mxCell>
        <mxCell id="RUTWPTI_gtGOaxQETF4y-79" value="" style="group" vertex="1" connectable="0" parent="1">
          <mxGeometry x="190" y="1090" width="150" height="300" as="geometry" />
        </mxCell>
        <mxCell id="RUTWPTI_gtGOaxQETF4y-73" value="" style="rounded=0;whiteSpace=wrap;html=1;" vertex="1" parent="RUTWPTI_gtGOaxQETF4y-79">
          <mxGeometry width="150" height="300" as="geometry" />
        </mxCell>
        <mxCell id="RUTWPTI_gtGOaxQETF4y-75" value="Header" style="rounded=0;whiteSpace=wrap;html=1;fillColor=#d5e8d4;strokeColor=#82b366;" vertex="1" parent="RUTWPTI_gtGOaxQETF4y-79">
          <mxGeometry width="150" height="60" as="geometry" />
        </mxCell>
        <mxCell id="RUTWPTI_gtGOaxQETF4y-76" value="Collapsed Sidebar" style="rounded=0;whiteSpace=wrap;html=1;fillColor=#fff2cc;strokeColor=#d6b656;" vertex="1" parent="RUTWPTI_gtGOaxQETF4y-79">
          <mxGeometry y="60" width="150" height="30" as="geometry" />
        </mxCell>
        <mxCell id="RUTWPTI_gtGOaxQETF4y-77" value="Content" style="rounded=0;whiteSpace=wrap;html=1;fillColor=#f8cecc;strokeColor=#b85450;" vertex="1" parent="RUTWPTI_gtGOaxQETF4y-79">
          <mxGeometry y="90" width="150" height="170" as="geometry" />
        </mxCell>
        <mxCell id="RUTWPTI_gtGOaxQETF4y-78" value="Footer" style="rounded=0;whiteSpace=wrap;html=1;fillColor=#e1d5e7;strokeColor=#9673a6;" vertex="1" parent="RUTWPTI_gtGOaxQETF4y-79">
          <mxGeometry y="260" width="150" height="40" as="geometry" />
        </mxCell>
        <mxCell id="RUTWPTI_gtGOaxQETF4y-80" value="Model 2: No sidebar" style="text;html=1;strokeColor=none;fillColor=none;align=center;verticalAlign=middle;whiteSpace=wrap;rounded=0;" vertex="1" parent="1">
          <mxGeometry x="370" y="1090" width="180" height="20" as="geometry" />
        </mxCell>
        <mxCell id="RUTWPTI_gtGOaxQETF4y-81" value="" style="group" vertex="1" connectable="0" parent="1">
          <mxGeometry x="540" y="1090" width="150" height="300" as="geometry" />
        </mxCell>
        <mxCell id="RUTWPTI_gtGOaxQETF4y-82" value="" style="rounded=0;whiteSpace=wrap;html=1;" vertex="1" parent="RUTWPTI_gtGOaxQETF4y-81">
          <mxGeometry width="150" height="300" as="geometry" />
        </mxCell>
        <mxCell id="RUTWPTI_gtGOaxQETF4y-83" value="Header" style="rounded=0;whiteSpace=wrap;html=1;fillColor=#d5e8d4;strokeColor=#82b366;" vertex="1" parent="RUTWPTI_gtGOaxQETF4y-81">
          <mxGeometry width="150" height="60" as="geometry" />
        </mxCell>
        <mxCell id="RUTWPTI_gtGOaxQETF4y-85" value="Content" style="rounded=0;whiteSpace=wrap;html=1;fillColor=#f8cecc;strokeColor=#b85450;" vertex="1" parent="RUTWPTI_gtGOaxQETF4y-81">
          <mxGeometry y="60" width="150" height="200" as="geometry" />
        </mxCell>
        <mxCell id="RUTWPTI_gtGOaxQETF4y-86" value="Footer" style="rounded=0;whiteSpace=wrap;html=1;fillColor=#e1d5e7;strokeColor=#9673a6;" vertex="1" parent="RUTWPTI_gtGOaxQETF4y-81">
          <mxGeometry y="260" width="150" height="40" as="geometry" />
        </mxCell>
        <mxCell id="RUTWPTI_gtGOaxQETF4y-87" value="Header Structure:" style="text;html=1;strokeColor=none;fillColor=none;align=center;verticalAlign=middle;whiteSpace=wrap;rounded=0;" vertex="1" parent="1">
          <mxGeometry x="270" y="1430" width="170" height="20" as="geometry" />
        </mxCell>
      </root>
    </mxGraphModel>
  </diagram>
</mxfile>
